# xmcd
#
# Track frame offsets:
#	183
#	11990
#	24460
#	39560
#	52375
#	63975
#	81248
#	99838
#	111328
#	122808
#	134963
#	147380
#	162243
#	177223
#	192123
#	208378
#	220993
#	232103
#	246168
#	262335
#	280208
#	299088
#
# Disc length: 4220
#
# Revision: 1
# Processed by: cddbd v1.5.1PL0 Copyright (c) Steve Scherf et al.
# Submitted via: CDex 1.51
# Normalized: r0:DSETVAR1,TDELIM( - )
#
DISCID=6f107a16
DTITLE=Various Artist - Onvergetelijke Country Hits CD3
DYEAR=1988
DGENRE=Country
TTITLE0=Roger Miller - By The Time I Get To Phoenix
TTITLE1=Dolly Parton - Elusive Butterfly
TTITLE2=Bobby Gentry - You've Made Me So Very Happy
TTITLE3=Charley Pride - Crystal Chandeliers
TTITLE4=Eddy Arnold - Rambling Rose
TTITLE5=Lynn Anderson - The Lonely Hearts Cafe
TTITLE6=Willie Neslon - To Each His Own
TTITLE7=Crystal Gayle - It's Alright With Me
TTITLE8=Don Gibson - Oh Lonesome Me
TTITLE9=Slim Whitman - My Special Angel
TTITLE10=Loretta Lynn - There Goes My Everything
TTITLE11=Bobby Golsboro - Sweet Caroline
TTITLE12=Marty Robbins - Some Memories Just Won't Die
TTITLE13=Eddy Arnold - Can't Take My Eyes Off Of You
TTITLE14=Willie Nelson - Blue Skies
TTITLE15=Glen Campbell - A Place In The Sun
TTITLE16=Charlie Rich - Have You Ever Been Lonely
TTITLE17=Dolly Parton - Coat Of Many Colours
TTITLE18=Kenny Rogers - Green, Green Grass Of Home
TTITLE19=Skeeter Davis - You've Got A Friend
TTITLE20=Johnny Cash - Sunday Morning Coming Down
TTITLE21=Slim Whitman - The Last Farewell
EXTD=YEAR: 1988
EXTT0=
EXTT1=
EXTT2=
EXTT3=
EXTT4=
EXTT5=
EXTT6=
EXTT7=
EXTT8=
EXTT9=
EXTT10=
EXTT11=
EXTT12=
EXTT13=
EXTT14=
EXTT15=
EXTT16=
EXTT17=
EXTT18=
EXTT19=
EXTT20=
EXTT21=
PLAYORDER=
